<?xml version="1.0" encoding="UTF-8"?>
<svg id="Laag_1" data-name="Laag 1" xmlns="http://www.w3.org/2000/svg" viewBox="0 0 1323.02 1964.19">
  <defs>
    <style>
      .cls-1 {
        stroke-width: 0px;
      }
    </style>
  </defs>
  <g>
    <polygon class="cls-1" points="193.99 123.26 146.38 148.29 155.47 95.27 116.96 57.73 170.18 50 193.99 1.77 217.79 50 271.01 57.73 232.5 95.27 241.59 148.29 193.99 123.26"/>
    <path class="cls-1" d="m193.99,2.9l23.24,47.09.23.47.52.08,51.96,7.55-37.6,36.65-.38.37.09.52,8.88,51.75-46.48-24.43-.47-.24-.47.24-46.48,24.43,8.88-51.75.09-.52-.38-.37-37.6-36.65,51.96-7.55.52-.08.23-.47L193.99,2.9m0-2.26l-24.14,48.9-53.97,7.84,39.05,38.07-9.22,53.75,48.27-25.38,48.27,25.38-9.22-53.75,39.05-38.07-53.97-7.84L193.99.64h0Z"/>
  </g>
  <g>
    <polygon class="cls-1" points="386.66 94.85 348.15 57.31 401.37 49.57 425.17 1.34 448.98 49.57 502.2 57.31 463.69 94.85 472.78 147.86 425.17 122.83 377.57 147.86 386.66 94.85"/>
    <path class="cls-1" d="m425.17,2.47l23.24,47.09.23.47.52.08,51.96,7.55-37.6,36.65-.38.37.09.52,8.88,51.75-46.48-24.43-.47-.24-.47.24-46.48,24.43,8.88-51.75.09-.52-.38-.37-37.6-36.65,51.96-7.55.52-.08.23-.47,23.24-47.09m0-2.26l-24.14,48.9-53.97,7.84,39.05,38.07-9.22,53.75,48.27-25.38,48.27,25.38-9.22-53.75,39.05-38.07-53.97-7.84L425.17.21h0Z"/>
  </g>
  <g>
    <polygon class="cls-1" points="655.94 123.04 608.33 148.07 617.42 95.06 578.91 57.52 632.13 49.79 655.94 1.55 679.74 49.79 732.96 57.52 694.45 95.06 703.54 148.07 655.94 123.04"/>
    <path class="cls-1" d="m655.94,2.68l23.24,47.09.23.47.52.08,51.96,7.55-37.6,36.65-.38.37.09.52,8.88,51.75-46.48-24.43-.47-.24-.47.24-46.48,24.43,8.88-51.75.09-.52-.38-.37-37.6-36.65,51.96-7.55.52-.08.23-.47,23.24-47.09m0-2.26l-24.14,48.9-53.97,7.84,39.05,38.07-9.22,53.75,48.27-25.38,48.27,25.38-9.22-53.75,39.05-38.07-53.97-7.84L655.94.42h0Z"/>
  </g>
  <g>
    <polygon class="cls-1" points="887.12 122.62 839.52 147.65 848.61 94.64 810.09 57.09 863.32 49.36 887.12 1.13 910.93 49.36 964.15 57.09 925.64 94.64 934.73 147.65 887.12 122.62"/>
    <path class="cls-1" d="m887.12,2.26l23.24,47.09.23.47.52.08,51.96,7.55-37.6,36.65-.38.37.09.52,8.88,51.75-46.48-24.43-.47-.24-.47.24-46.48,24.43,8.88-51.75.09-.52-.38-.37-37.6-36.65,51.96-7.55.52-.08.23-.47,23.24-47.09m0-2.26l-24.14,48.9-53.97,7.84,39.05,38.07-9.22,53.75,48.27-25.38,48.27,25.38-9.22-53.75,39.05-38.07-53.97-7.84L887.12,0h0Z"/>
  </g>
  <g>
    <polygon class="cls-1" points="1117.89 122.83 1070.28 147.86 1079.37 94.85 1040.86 57.31 1094.08 49.57 1117.89 1.34 1141.69 49.57 1194.91 57.31 1156.4 94.85 1165.49 147.86 1117.89 122.83"/>
    <path class="cls-1" d="m1117.89,2.47l23.24,47.09.23.47.52.08,51.96,7.55-37.6,36.65-.38.37.09.52,8.88,51.75-46.48-24.43-.47-.24-.47.24-46.48,24.43,8.88-51.75.09-.52-.38-.37-37.6-36.65,51.96-7.55.52-.08.23-.47,23.24-47.09m0-2.26l-24.14,48.9-53.97,7.84,39.05,38.07-9.22,53.75,48.27-25.38,48.27,25.38-9.22-53.75,39.05-38.07-53.97-7.84L1117.89.21h0Z"/>
  </g>
  <g>
    <polygon class="cls-1" points="317.15 304.17 269.55 329.2 278.64 276.19 240.12 238.65 293.35 230.91 317.15 182.68 340.96 230.91 394.18 238.65 355.67 276.19 364.76 329.2 317.15 304.17"/>
    <path class="cls-1" d="m317.15,183.81l23.24,47.09.23.47.52.08,51.96,7.55-37.6,36.65-.38.37.09.52,8.88,51.75-46.48-24.43-.47-.24-.47.24-46.48,24.43,8.88-51.75.09-.52-.38-.37-37.6-36.65,51.96-7.55.52-.08.23-.47,23.24-47.09m0-2.26l-24.14,48.9-53.97,7.84,39.05,38.07-9.22,53.75,48.27-25.38,48.27,25.38-9.22-53.75,39.05-38.07-53.97-7.84-24.14-48.9h0Z"/>
  </g>
  <g>
    <polygon class="cls-1" points="548.34 303.75 500.74 328.78 509.83 275.77 471.31 238.22 524.54 230.49 548.34 182.26 572.15 230.49 625.37 238.22 586.86 275.77 595.95 328.78 548.34 303.75"/>
    <path class="cls-1" d="m548.34,183.39l23.24,47.09.23.47.52.08,51.96,7.55-37.6,36.65-.38.37.09.52,8.88,51.75-46.48-24.43-.47-.24-.47.24-46.48,24.43,8.88-51.75.09-.52-.38-.37-37.6-36.65,51.96-7.55.52-.08.23-.47,23.24-47.09m0-2.26l-24.14,48.9-53.97,7.84,39.05,38.07-9.22,53.75,48.27-25.38,48.27,25.38-9.22-53.75,39.05-38.07-53.97-7.84-24.14-48.9h0Z"/>
  </g>
  <g>
    <polygon class="cls-1" points="740.59 275.98 702.07 238.44 755.3 230.7 779.1 182.47 802.91 230.7 856.13 238.44 817.62 275.98 826.71 328.99 779.1 303.96 731.5 328.99 740.59 275.98"/>
    <path class="cls-1" d="m779.1,183.6l23.24,47.09.23.47.52.08,51.96,7.55-37.6,36.65-.38.37.09.52,8.88,51.75-46.48-24.43-.47-.24-.47.24-46.48,24.43,8.88-51.75.09-.52-.38-.37-37.6-36.65,51.96-7.55.52-.08.23-.47,23.24-47.09m0-2.26l-24.14,48.9-53.97,7.84,39.05,38.07-9.22,53.75,48.27-25.38,48.27,25.38-9.22-53.75,39.05-38.07-53.97-7.84-24.14-48.9h0Z"/>
  </g>
  <g>
    <polygon class="cls-1" points="1010.29 303.54 962.69 328.57 971.78 275.55 933.26 238.01 986.49 230.28 1010.29 182.05 1034.1 230.28 1087.32 238.01 1048.81 275.55 1057.9 328.57 1010.29 303.54"/>
    <path class="cls-1" d="m1010.29,183.18l23.24,47.09.23.47.52.08,51.96,7.55-37.6,36.65-.38.37.09.52,8.88,51.75-46.48-24.43-.47-.24-.47.24-46.48,24.43,8.88-51.75.09-.52-.38-.37-37.6-36.65,51.96-7.55.52-.08.23-.47,23.24-47.09m0-2.26l-24.14,48.9-53.97,7.84,39.05,38.07-9.22,53.75,48.27-25.38,48.27,25.38-9.22-53.75,39.05-38.07-53.97-7.84-24.14-48.9h0Z"/>
  </g>
  <g>
    <polygon class="cls-1" points="1241.05 303.75 1193.45 328.78 1202.54 275.77 1164.02 238.22 1217.25 230.49 1241.05 182.26 1264.86 230.49 1318.08 238.22 1279.57 275.77 1288.66 328.78 1241.05 303.75"/>
    <path class="cls-1" d="m1241.05,183.39l23.24,47.09.23.47.52.08,51.96,7.55-37.6,36.65-.38.37.09.52,8.88,51.75-46.48-24.43-.47-.24-.47.24-46.48,24.43,8.88-51.75.09-.52-.38-.37-37.6-36.65,51.96-7.55.52-.08.23-.47,23.24-47.09m0-2.26l-24.14,48.9-53.97,7.84,39.05,38.07-9.22,53.75,48.27-25.38,48.27,25.38-9.22-53.75,39.05-38.07-53.97-7.84-24.14-48.9h0Z"/>
  </g>
  <g>
    <polygon class="cls-1" points="194.15 486.17 146.55 511.2 155.64 458.19 117.12 420.65 170.35 412.91 194.15 364.68 217.96 412.91 271.18 420.65 232.67 458.19 241.76 511.2 194.15 486.17"/>
    <path class="cls-1" d="m194.15,365.81l23.24,47.09.23.47.52.08,51.96,7.55-37.6,36.65-.38.37.09.52,8.88,51.75-46.48-24.43-.47-.24-.47.24-46.48,24.43,8.88-51.75.09-.52-.38-.37-37.6-36.65,51.96-7.55.52-.08.23-.47,23.24-47.09m0-2.26l-24.14,48.9-53.97,7.84,39.05,38.07-9.22,53.75,48.27-25.38,48.27,25.38-9.22-53.75,39.05-38.07-53.97-7.84-24.14-48.9h0Z"/>
  </g>
  <g>
    <polygon class="cls-1" points="425.34 485.75 377.74 510.78 386.83 457.77 348.31 420.22 401.54 412.49 425.34 364.26 449.15 412.49 502.37 420.22 463.86 457.77 472.95 510.78 425.34 485.75"/>
    <path class="cls-1" d="m425.34,365.39l23.24,47.09.23.47.52.08,51.96,7.55-37.6,36.65-.38.37.09.52,8.88,51.75-46.48-24.43-.47-.24-.47.24-46.48,24.43,8.88-51.75.09-.52-.38-.37-37.6-36.65,51.96-7.55.52-.08.23-.47,23.24-47.09m0-2.26l-24.14,48.9-53.97,7.84,39.05,38.07-9.22,53.75,48.27-25.38,48.27,25.38-9.22-53.75,39.05-38.07-53.97-7.84-24.14-48.9h0Z"/>
  </g>
  <g>
    <polygon class="cls-1" points="617.59 457.98 579.07 420.44 632.3 412.7 656.1 364.47 679.91 412.7 733.13 420.44 694.62 457.98 703.71 510.99 656.1 485.96 608.5 510.99 617.59 457.98"/>
    <path class="cls-1" d="m656.1,365.6l23.24,47.09.23.47.52.08,51.96,7.55-37.6,36.65-.38.37.09.52,8.88,51.75-46.48-24.43-.47-.24-.47.24-46.48,24.43,8.88-51.75.09-.52-.38-.37-37.6-36.65,51.96-7.55.52-.08.23-.47,23.24-47.09m0-2.26l-24.14,48.9-53.97,7.84,39.05,38.07-9.22,53.75,48.27-25.38,48.27,25.38-9.22-53.75,39.05-38.07-53.97-7.84-24.14-48.9h0Z"/>
  </g>
  <g>
    <polygon class="cls-1" points="887.29 485.54 839.69 510.57 848.78 457.55 810.26 420.01 863.49 412.28 887.29 364.05 911.1 412.28 964.32 420.01 925.81 457.55 934.9 510.57 887.29 485.54"/>
    <path class="cls-1" d="m887.29,365.18l23.24,47.09.23.47.52.08,51.96,7.55-37.6,36.65-.38.37.09.52,8.88,51.75-46.48-24.43-.47-.24-.47.24-46.48,24.43,8.88-51.75.09-.52-.38-.37-37.6-36.65,51.96-7.55.52-.08.23-.47,23.24-47.09m0-2.26l-24.14,48.9-53.97,7.84,39.05,38.07-9.22,53.75,48.27-25.38,48.27,25.38-9.22-53.75,39.05-38.07-53.97-7.84-24.14-48.9h0Z"/>
  </g>
  <g>
    <polygon class="cls-1" points="1118.05 485.75 1070.45 510.78 1079.54 457.77 1041.02 420.22 1094.25 412.49 1118.05 364.26 1141.86 412.49 1195.08 420.22 1156.57 457.77 1165.66 510.78 1118.05 485.75"/>
    <path class="cls-1" d="m1118.05,365.39l23.24,47.09.23.47.52.08,51.96,7.55-37.6,36.65-.38.37.09.52,8.88,51.75-46.48-24.43-.47-.24-.47.24-46.48,24.43,8.88-51.75.09-.52-.38-.37-37.6-36.65,51.96-7.55.52-.08.23-.47,23.24-47.09m0-2.26l-24.14,48.9-53.97,7.84,39.05,38.07-9.22,53.75,48.27-25.38,48.27,25.38-9.22-53.75,39.05-38.07-53.97-7.84-24.14-48.9h0Z"/>
  </g>
  <g>
    <polygon class="cls-1" points="47.59 275.87 9.07 238.33 62.3 230.6 86.1 182.37 109.91 230.6 163.13 238.33 124.62 275.87 133.71 328.88 86.1 303.86 38.5 328.88 47.59 275.87"/>
    <path class="cls-1" d="m86.1,183.5l23.24,47.09.23.47.52.08,51.96,7.55-37.6,36.65-.38.37.09.52,8.88,51.75-46.48-24.43-.47-.24-.47.24-46.48,24.43,8.88-51.75.09-.52-.38-.37-37.6-36.65,51.96-7.55.52-.08.23-.47,23.24-47.09m0-2.26l-24.14,48.9-53.97,7.84,39.05,38.07-9.22,53.75,48.27-25.38,48.27,25.38-9.22-53.75,39.05-38.07-53.97-7.84-24.14-48.9h0Z"/>
  </g>
  <g>
    <polygon class="cls-1" points="271 640.73 232.48 603.19 285.71 595.46 309.51 547.23 333.31 595.46 386.54 603.19 348.03 640.73 357.12 693.74 309.51 668.72 261.9 693.74 271 640.73"/>
    <path class="cls-1" d="m309.51,548.36l23.24,47.09.23.47.52.08,51.96,7.55-37.6,36.65-.38.37.09.52,8.88,51.75-46.48-24.43-.47-.24-.47.24-46.48,24.43,8.88-51.75.09-.52-.38-.37-37.6-36.65,51.96-7.55.52-.08.23-.47,23.24-47.09m0-2.26l-24.14,48.9-53.97,7.84,39.05,38.07-9.22,53.75,48.27-25.38,48.27,25.38-9.22-53.75,39.05-38.07-53.97-7.84-24.14-48.9h0Z"/>
  </g>
  <g>
    <polygon class="cls-1" points="540.7 668.29 493.09 693.32 502.18 640.31 463.67 602.77 516.9 595.03 540.7 546.8 564.5 595.03 617.73 602.77 579.21 640.31 588.31 693.32 540.7 668.29"/>
    <path class="cls-1" d="m540.7,547.93l23.24,47.09.23.47.52.08,51.96,7.55-37.6,36.65-.38.37.09.52,8.88,51.75-46.48-24.43-.47-.24-.47.24-46.48,24.43,8.88-51.75.09-.52-.38-.37-37.6-36.65,51.96-7.55.52-.08.23-.47,23.24-47.09m0-2.26l-24.14,48.9-53.97,7.84,39.05,38.07-9.22,53.75,48.27-25.38,48.27,25.38-9.22-53.75,39.05-38.07-53.97-7.84-24.14-48.9h0Z"/>
  </g>
  <g>
    <polygon class="cls-1" points="771.46 668.5 723.85 693.53 732.95 640.52 694.43 602.98 747.66 595.24 771.46 547.01 795.26 595.24 848.49 602.98 809.98 640.52 819.07 693.53 771.46 668.5"/>
    <path class="cls-1" d="m771.46,548.14l23.24,47.09.23.47.52.08,51.96,7.55-37.6,36.65-.38.37.09.52,8.88,51.75-46.48-24.43-.47-.24-.47.24-46.48,24.43,8.88-51.75.09-.52-.38-.37-37.6-36.65,51.96-7.55.52-.08.23-.47,23.24-47.09m0-2.26l-24.14,48.9-53.97,7.84,39.05,38.07-9.22,53.75,48.27-25.38,48.27,25.38-9.22-53.75,39.05-38.07-53.97-7.84-24.14-48.9h0Z"/>
  </g>
  <g>
    <polygon class="cls-1" points="1002.65 668.08 955.04 693.11 964.13 640.1 925.62 602.55 978.85 594.82 1002.65 546.59 1026.45 594.82 1079.68 602.55 1041.16 640.1 1050.26 693.11 1002.65 668.08"/>
    <path class="cls-1" d="m1002.65,547.72l23.24,47.09.23.47.52.08,51.96,7.55-37.6,36.65-.38.37.09.52,8.88,51.75-46.48-24.43-.47-.24-.47.24-46.48,24.43,8.88-51.75.09-.52-.38-.37-37.6-36.65,51.96-7.55.52-.08.23-.47,23.24-47.09m0-2.26l-24.14,48.9-53.97,7.84,39.05,38.07-9.22,53.75,48.27-25.38,48.27,25.38-9.22-53.75,39.05-38.07-53.97-7.84-24.14-48.9h0Z"/>
  </g>
  <g>
    <polygon class="cls-1" points="1194.9 640.31 1156.38 602.77 1209.61 595.03 1233.41 546.8 1257.21 595.03 1310.44 602.77 1271.93 640.31 1281.02 693.32 1233.41 668.29 1185.8 693.32 1194.9 640.31"/>
    <path class="cls-1" d="m1233.41,547.93l23.24,47.09.23.47.52.08,51.96,7.55-37.6,36.65-.38.37.09.52,8.88,51.75-46.48-24.43-.47-.24-.47.24-46.48,24.43,8.88-51.75.09-.52-.38-.37-37.6-36.65,51.96-7.55.52-.08.23-.47,23.24-47.09m0-2.26l-24.14,48.9-53.97,7.84,39.05,38.07-9.22,53.75,48.27-25.38,48.27,25.38-9.22-53.75,39.05-38.07-53.97-7.84-24.14-48.9h0Z"/>
  </g>
  <g>
    <polygon class="cls-1" points="432.68 849.63 385.07 874.66 394.16 821.65 355.65 784.11 408.88 776.37 432.68 728.14 456.48 776.37 509.71 784.11 471.19 821.65 480.29 874.66 432.68 849.63"/>
    <path class="cls-1" d="m432.68,729.27l23.24,47.09.23.47.52.08,51.96,7.55-37.6,36.65-.38.37.09.52,8.88,51.75-46.48-24.43-.47-.24-.47.24-46.48,24.43,8.88-51.75.09-.52-.38-.37-37.6-36.65,51.96-7.55.52-.08.23-.47,23.24-47.09m0-2.26l-24.14,48.9-53.97,7.84,39.05,38.07-9.22,53.75,48.27-25.38,48.27,25.38-9.22-53.75,39.05-38.07-53.97-7.84-24.14-48.9h0Z"/>
  </g>
  <g>
    <polygon class="cls-1" points="625.35 821.23 586.84 783.68 640.06 775.95 663.87 727.72 687.67 775.95 740.9 783.68 702.38 821.23 711.47 874.24 663.87 849.21 616.26 874.24 625.35 821.23"/>
    <path class="cls-1" d="m663.87,728.85l23.24,47.09.23.47.52.08,51.96,7.55-37.6,36.65-.38.37.09.52,8.88,51.75-46.48-24.43-.47-.24-.47.24-46.48,24.43,8.88-51.75.09-.52-.38-.37-37.6-36.65,51.96-7.55.52-.08.23-.47,23.24-47.09m0-2.26l-24.14,48.9-53.97,7.84,39.05,38.07-9.22,53.75,48.27-25.38,48.27,25.38-9.22-53.75,39.05-38.07-53.97-7.84-24.14-48.9h0Z"/>
  </g>
  <g>
    <polygon class="cls-1" points="894.63 849.42 847.02 874.45 856.11 821.44 817.6 783.9 870.83 776.16 894.63 727.93 918.43 776.16 971.66 783.9 933.14 821.44 942.24 874.45 894.63 849.42"/>
    <path class="cls-1" d="m894.63,729.06l23.24,47.09.23.47.52.08,51.96,7.55-37.6,36.65-.38.37.09.52,8.88,51.75-46.48-24.43-.47-.24-.47.24-46.48,24.43,8.88-51.75.09-.52-.38-.37-37.6-36.65,51.96-7.55.52-.08.23-.47,23.24-47.09m0-2.26l-24.14,48.9-53.97,7.84,39.05,38.07-9.22,53.75,48.27-25.38,48.27,25.38-9.22-53.75,39.05-38.07-53.97-7.84-24.14-48.9h0Z"/>
  </g>
  <g>
    <polygon class="cls-1" points="1125.82 849 1078.21 874.02 1087.3 821.01 1048.79 783.47 1102.01 775.74 1125.82 727.51 1149.62 775.74 1202.85 783.47 1164.33 821.01 1173.42 874.02 1125.82 849"/>
    <path class="cls-1" d="m1125.82,728.64l23.24,47.09.23.47.52.08,51.96,7.55-37.6,36.65-.38.37.09.52,8.88,51.75-46.48-24.43-.47-.24-.47.24-46.48,24.43,8.88-51.75.09-.52-.38-.37-37.6-36.65,51.96-7.55.52-.08.23-.47,23.24-47.09m0-2.26l-24.14,48.9-53.97,7.84,39.05,38.07-9.22,53.75,48.27-25.38,48.27,25.38-9.22-53.75,39.05-38.07-53.97-7.84-24.14-48.9h0Z"/>
  </g>
  <g>
    <polygon class="cls-1" points="78.58 669.21 30.97 694.24 40.06 641.23 1.55 603.68 54.78 595.95 78.58 547.72 102.38 595.95 155.61 603.68 117.09 641.23 126.19 694.24 78.58 669.21"/>
    <path class="cls-1" d="m78.58,548.85l23.24,47.09.23.47.52.08,51.96,7.55-37.6,36.65-.38.37.09.52,8.88,51.75-46.48-24.43-.47-.24-.47.24-46.48,24.43,8.88-51.75.09-.52-.38-.37-37.6-36.65,51.96-7.55.52-.08.23-.47,23.24-47.09m0-2.26l-24.14,48.9-53.97,7.84,39.05,38.07-9.22,53.75,48.27-25.38,48.27,25.38-9.22-53.75,39.05-38.07-53.97-7.84-24.14-48.9h0Z"/>
  </g>
  <g>
    <polygon class="cls-1" points="309.68 1031.63 262.07 1056.66 271.16 1003.65 232.65 966.11 285.88 958.37 309.68 910.14 333.48 958.37 386.71 966.11 348.19 1003.65 357.29 1056.66 309.68 1031.63"/>
    <path class="cls-1" d="m309.68,911.27l23.24,47.09.23.47.52.08,51.96,7.55-37.6,36.65-.38.37.09.52,8.88,51.75-46.48-24.43-.47-.24-.47.24-46.48,24.43,8.88-51.75.09-.52-.38-.37-37.6-36.65,51.96-7.55.52-.08.23-.47,23.24-47.09m0-2.26l-24.14,48.9-53.97,7.84,39.05,38.07-9.22,53.75,48.27-25.38,48.27,25.38-9.22-53.75,39.05-38.07-53.97-7.84-24.14-48.9h0Z"/>
  </g>
  <g>
    <polygon class="cls-1" points="502.35 1003.23 463.84 965.68 517.06 957.95 540.87 909.72 564.67 957.95 617.9 965.68 579.38 1003.23 588.47 1056.24 540.87 1031.21 493.26 1056.24 502.35 1003.23"/>
    <path class="cls-1" d="m540.87,910.85l23.24,47.09.23.47.52.08,51.96,7.55-37.6,36.65-.38.37.09.52,8.88,51.75-46.48-24.43-.47-.24-.47.24-46.48,24.43,8.88-51.75.09-.52-.38-.37-37.6-36.65,51.96-7.55.52-.08.23-.47,23.24-47.09m0-2.26l-24.14,48.9-53.97,7.84,39.05,38.07-9.22,53.75,48.27-25.38,48.27,25.38-9.22-53.75,39.05-38.07-53.97-7.84-24.14-48.9h0Z"/>
  </g>
  <g>
    <polygon class="cls-1" points="771.63 1031.42 724.02 1056.45 733.11 1003.44 694.6 965.9 747.83 958.16 771.63 909.93 795.43 958.16 848.66 965.9 810.14 1003.44 819.24 1056.45 771.63 1031.42"/>
    <path class="cls-1" d="m771.63,911.06l23.24,47.09.23.47.52.08,51.96,7.55-37.6,36.65-.38.37.09.52,8.88,51.75-46.48-24.43-.47-.24-.47.24-46.48,24.43,8.88-51.75.09-.52-.38-.37-37.6-36.65,51.96-7.55.52-.08.23-.47,23.24-47.09m0-2.26l-24.14,48.9-53.97,7.84,39.05,38.07-9.22,53.75,48.27-25.38,48.27,25.38-9.22-53.75,39.05-38.07-53.97-7.84-24.14-48.9h0Z"/>
  </g>
  <g>
    <polygon class="cls-1" points="964.3 1003.01 925.79 965.47 979.01 957.74 1002.82 909.51 1026.62 957.74 1079.85 965.47 1041.33 1003.01 1050.42 1056.02 1002.82 1031 955.21 1056.02 964.3 1003.01"/>
    <path class="cls-1" d="m1002.82,910.64l23.24,47.09.23.47.52.08,51.96,7.55-37.6,36.65-.38.37.09.52,8.88,51.75-46.48-24.43-.47-.24-.47.24-46.48,24.43,8.88-51.75.09-.52-.38-.37-37.6-36.65,51.96-7.55.52-.08.23-.47,23.24-47.09m0-2.26l-24.14,48.9-53.97,7.84,39.05,38.07-9.22,53.75,48.27-25.38,48.27,25.38-9.22-53.75,39.05-38.07-53.97-7.84-24.14-48.9h0Z"/>
  </g>
  <g>
    <polygon class="cls-1" points="1233.58 1031.21 1185.97 1056.24 1195.06 1003.23 1156.55 965.68 1209.78 957.95 1233.58 909.72 1257.38 957.95 1310.61 965.68 1272.09 1003.23 1281.19 1056.24 1233.58 1031.21"/>
    <path class="cls-1" d="m1233.58,910.85l23.24,47.09.23.47.52.08,51.96,7.55-37.6,36.65-.38.37.09.52,8.88,51.75-46.48-24.43-.47-.24-.47.24-46.48,24.43,8.88-51.75.09-.52-.38-.37-37.6-36.65,51.96-7.55.52-.08.23-.47,23.24-47.09m0-2.26l-24.14,48.9-53.97,7.84,39.05,38.07-9.22,53.75,48.27-25.38,48.27,25.38-9.22-53.75,39.05-38.07-53.97-7.84-24.14-48.9h0Z"/>
  </g>
  <g>
    <polygon class="cls-1" points="201.63 849.31 154.02 874.34 163.11 821.33 124.6 783.79 177.83 776.06 201.63 727.82 225.43 776.06 278.66 783.79 240.14 821.33 249.24 874.34 201.63 849.31"/>
    <path class="cls-1" d="m201.63,728.95l23.24,47.09.23.47.52.08,51.96,7.55-37.6,36.65-.38.37.09.52,8.88,51.75-46.48-24.43-.47-.24-.47.24-46.48,24.43,8.88-51.75.09-.52-.38-.37-37.6-36.65,51.96-7.55.52-.08.23-.47,23.24-47.09m0-2.26l-24.14,48.9-53.97,7.84,39.05,38.07-9.22,53.75,48.27-25.38,48.27,25.38-9.22-53.75,39.05-38.07-53.97-7.84-24.14-48.9h0Z"/>
  </g>
  <g>
    <polygon class="cls-1" points="39.59 1003.87 1.07 966.33 54.3 958.6 78.1 910.37 101.91 958.6 155.13 966.33 116.62 1003.87 125.71 1056.88 78.1 1031.86 30.5 1056.88 39.59 1003.87"/>
    <path class="cls-1" d="m78.1,911.5l23.24,47.09.23.47.52.08,51.96,7.55-37.6,36.65-.38.37.09.52,8.88,51.75-46.48-24.43-.47-.24-.47.24-46.48,24.43,8.88-51.75.09-.52-.38-.37-37.6-36.65,51.96-7.55.52-.08.23-.47,23.24-47.09m0-2.26l-24.14,48.9-53.97,7.84,39.05,38.07-9.22,53.75,48.27-25.38,48.27,25.38-9.22-53.75,39.05-38.07-53.97-7.84-24.14-48.9h0Z"/>
  </g>
  <g>
    <polygon class="cls-1" points="197.84 1211.87 150.24 1236.9 159.33 1183.89 120.81 1146.35 174.04 1138.62 197.84 1090.39 221.65 1138.62 274.87 1146.35 236.36 1183.89 245.45 1236.9 197.84 1211.87"/>
    <path class="cls-1" d="m197.84,1091.51l23.24,47.09.23.47.52.08,51.96,7.55-37.6,36.65-.38.37.09.52,8.88,51.75-46.48-24.43-.47-.24-.47.24-46.48,24.43,8.88-51.75.09-.52-.38-.37-37.6-36.65,51.96-7.55.52-.08.23-.47,23.24-47.09m0-2.26l-24.14,48.9-53.97,7.84,39.05,38.07-9.22,53.75,48.27-25.38,48.27,25.38-9.22-53.75,39.05-38.07-53.97-7.84-24.14-48.9h0Z"/>
  </g>
  <g>
    <polygon class="cls-1" points="390.52 1183.47 352 1145.93 405.23 1138.19 429.03 1089.96 452.84 1138.19 506.06 1145.93 467.55 1183.47 476.64 1236.48 429.03 1211.45 381.43 1236.48 390.52 1183.47"/>
    <path class="cls-1" d="m429.03,1091.09l23.24,47.09.23.47.52.08,51.96,7.55-37.6,36.65-.38.37.09.52,8.88,51.75-46.48-24.43-.47-.24-.47.24-46.48,24.43,8.88-51.75.09-.52-.38-.37-37.6-36.65,51.96-7.55.52-.08.23-.47,23.24-47.09m0-2.26l-24.14,48.9-53.97,7.84,39.05,38.07-9.22,53.75,48.27-25.38,48.27,25.38-9.22-53.75,39.05-38.07-53.97-7.84-24.14-48.9h0Z"/>
  </g>
  <g>
    <polygon class="cls-1" points="659.79 1211.66 612.19 1236.69 621.28 1183.68 582.76 1146.14 635.99 1138.4 659.79 1090.17 683.6 1138.4 736.82 1146.14 698.31 1183.68 707.4 1236.69 659.79 1211.66"/>
    <path class="cls-1" d="m659.79,1091.3l23.24,47.09.23.47.52.08,51.96,7.55-37.6,36.65-.38.37.09.52,8.88,51.75-46.48-24.43-.47-.24-.47.24-46.48,24.43,8.88-51.75.09-.52-.38-.37-37.6-36.65,51.96-7.55.52-.08.23-.47,23.24-47.09m0-2.26l-24.14,48.9-53.97,7.84,39.05,38.07-9.22,53.75,48.27-25.38,48.27,25.38-9.22-53.75,39.05-38.07-53.97-7.84-24.14-48.9h0Z"/>
  </g>
  <g>
    <polygon class="cls-1" points="890.98 1211.24 843.38 1236.27 852.47 1183.26 813.95 1145.71 867.18 1137.98 890.98 1089.75 914.79 1137.98 968.01 1145.71 929.5 1183.26 938.59 1236.27 890.98 1211.24"/>
    <path class="cls-1" d="m890.98,1090.88l23.24,47.09.23.47.52.08,51.96,7.55-37.6,36.65-.38.37.09.52,8.88,51.75-46.48-24.43-.47-.24-.47.24-46.48,24.43,8.88-51.75.09-.52-.38-.37-37.6-36.65,51.96-7.55.52-.08.23-.47,23.24-47.09m0-2.26l-24.14,48.9-53.97,7.84,39.05,38.07-9.22,53.75,48.27-25.38,48.27,25.38-9.22-53.75,39.05-38.07-53.97-7.84-24.14-48.9h0Z"/>
  </g>
  <g>
    <polygon class="cls-1" points="1121.74 1211.45 1074.14 1236.48 1083.23 1183.47 1044.71 1145.93 1097.94 1138.19 1121.74 1089.96 1145.55 1138.19 1198.77 1145.93 1160.26 1183.47 1169.35 1236.48 1121.74 1211.45"/>
    <path class="cls-1" d="m1121.74,1091.09l23.24,47.09.23.47.52.08,51.96,7.55-37.6,36.65-.38.37.09.52,8.88,51.75-46.48-24.43-.47-.24-.47.24-46.48,24.43,8.88-51.75.09-.52-.38-.37-37.6-36.65,51.96-7.55.52-.08.23-.47,23.24-47.09m0-2.26l-24.14,48.9-53.97,7.84,39.05,38.07-9.22,53.75,48.27-25.38,48.27,25.38-9.22-53.75,39.05-38.07-53.97-7.84-24.14-48.9h0Z"/>
  </g>
  <g>
    <polygon class="cls-1" points="282.5 1364.81 243.98 1327.27 297.21 1319.53 321.01 1271.3 344.82 1319.53 398.04 1327.27 359.53 1364.81 368.62 1417.82 321.01 1392.79 273.41 1417.82 282.5 1364.81"/>
    <path class="cls-1" d="m321.01,1272.43l23.24,47.09.23.47.52.08,51.96,7.55-37.6,36.65-.38.37.09.52,8.88,51.75-46.48-24.43-.47-.24-.47.24-46.48,24.43,8.88-51.75.09-.52-.38-.37-37.6-36.65,51.96-7.55.52-.08.23-.47,23.24-47.09m0-2.26l-24.14,48.9-53.97,7.84,39.05,38.07-9.22,53.75,48.27-25.38,48.27,25.38-9.22-53.75,39.05-38.07-53.97-7.84-24.14-48.9h0Z"/>
  </g>
  <g>
    <polygon class="cls-1" points="513.69 1364.39 475.17 1326.84 528.4 1319.11 552.2 1270.88 576 1319.11 629.23 1326.84 590.72 1364.39 599.81 1417.4 552.2 1392.37 504.59 1417.4 513.69 1364.39"/>
    <path class="cls-1" d="m552.2,1272.01l23.24,47.09.23.47.52.08,51.96,7.55-37.6,36.65-.38.37.09.52,8.88,51.75-46.48-24.43-.47-.24-.47.24-46.48,24.43,8.88-51.75.09-.52-.38-.37-37.6-36.65,51.96-7.55.52-.08.23-.47,23.24-47.09m0-2.26l-24.14,48.9-53.97,7.84,39.05,38.07-9.22,53.75,48.27-25.38,48.27,25.38-9.22-53.75,39.05-38.07-53.97-7.84-24.14-48.9h0Z"/>
  </g>
  <g>
    <polygon class="cls-1" points="782.96 1392.58 735.36 1417.61 744.45 1364.6 705.93 1327.05 759.16 1319.32 782.96 1271.09 806.77 1319.32 859.99 1327.05 821.48 1364.6 830.57 1417.61 782.96 1392.58"/>
    <path class="cls-1" d="m782.96,1272.22l23.24,47.09.23.47.52.08,51.96,7.55-37.6,36.65-.38.37.09.52,8.88,51.75-46.48-24.43-.47-.24-.47.24-46.48,24.43,8.88-51.75.09-.52-.38-.37-37.6-36.65,51.96-7.55.52-.08.23-.47,23.24-47.09m0-2.26l-24.14,48.9-53.97,7.84,39.05,38.07-9.22,53.75,48.27-25.38,48.27,25.38-9.22-53.75,39.05-38.07-53.97-7.84-24.14-48.9h0Z"/>
  </g>
  <g>
    <polygon class="cls-1" points="1014.15 1392.15 966.54 1417.18 975.64 1364.17 937.12 1326.63 990.35 1318.9 1014.15 1270.66 1037.95 1318.9 1091.18 1326.63 1052.67 1364.17 1061.76 1417.18 1014.15 1392.15"/>
    <path class="cls-1" d="m1014.15,1271.79l23.24,47.09.23.47.52.08,51.96,7.55-37.6,36.65-.38.37.09.52,8.88,51.75-46.48-24.43-.47-.24-.47.24-46.48,24.43,8.88-51.75.09-.52-.38-.37-37.6-36.65,51.96-7.55.52-.08.23-.47,23.24-47.09m0-2.26l-24.14,48.9-53.97,7.84,39.05,38.07-9.22,53.75,48.27-25.38,48.27,25.38-9.22-53.75,39.05-38.07-53.97-7.84-24.14-48.9h0Z"/>
  </g>
  <g>
    <polygon class="cls-1" points="1244.91 1392.37 1197.31 1417.4 1206.4 1364.39 1167.88 1326.84 1221.11 1319.11 1244.91 1270.88 1268.72 1319.11 1321.94 1326.84 1283.43 1364.39 1292.52 1417.4 1244.91 1392.37"/>
    <path class="cls-1" d="m1244.91,1272.01l23.24,47.09.23.47.52.08,51.96,7.55-37.6,36.65-.38.37.09.52,8.88,51.75-46.48-24.43-.47-.24-.47.24-46.48,24.43,8.88-51.75.09-.52-.38-.37-37.6-36.65,51.96-7.55.52-.08.23-.47,23.24-47.09m0-2.26l-24.14,48.9-53.97,7.84,39.05,38.07-9.22,53.75,48.27-25.38,48.27,25.38-9.22-53.75,39.05-38.07-53.97-7.84-24.14-48.9h0Z"/>
  </g>
  <g>
    <polygon class="cls-1" points="159.5 1546.81 120.98 1509.27 174.21 1501.53 198.01 1453.3 221.82 1501.53 275.04 1509.27 236.53 1546.81 245.62 1599.82 198.01 1574.79 150.41 1599.82 159.5 1546.81"/>
    <path class="cls-1" d="m198.01,1454.43l23.24,47.09.23.47.52.08,51.96,7.55-37.6,36.65-.38.37.09.52,8.88,51.75-46.48-24.43-.47-.24-.47.24-46.48,24.43,8.88-51.75.09-.52-.38-.37-37.6-36.65,51.96-7.55.52-.08.23-.47,23.24-47.09m0-2.26l-24.14,48.9-53.97,7.84,39.05,38.07-9.22,53.75,48.27-25.38,48.27,25.38-9.22-53.75,39.05-38.07-53.97-7.84-24.14-48.9h0Z"/>
  </g>
  <g>
    <polygon class="cls-1" points="390.69 1546.39 352.17 1508.84 405.4 1501.11 429.2 1452.88 453 1501.11 506.23 1508.84 467.72 1546.39 476.81 1599.4 429.2 1574.37 381.59 1599.4 390.69 1546.39"/>
    <path class="cls-1" d="m429.2,1454.01l23.24,47.09.23.47.52.08,51.96,7.55-37.6,36.65-.38.37.09.52,8.88,51.75-46.48-24.43-.47-.24-.47.24-46.48,24.43,8.88-51.75.09-.52-.38-.37-37.6-36.65,51.96-7.55.52-.08.23-.47,23.24-47.09m0-2.26l-24.14,48.9-53.97,7.84,39.05,38.07-9.22,53.75,48.27-25.38,48.27,25.38-9.22-53.75,39.05-38.07-53.97-7.84-24.14-48.9h0Z"/>
  </g>
  <g>
    <polygon class="cls-1" points="621.45 1546.6 582.93 1509.05 636.16 1501.32 659.96 1453.09 683.77 1501.32 736.99 1509.05 698.48 1546.6 707.57 1599.61 659.96 1574.58 612.36 1599.61 621.45 1546.6"/>
    <path class="cls-1" d="m659.96,1454.22l23.24,47.09.23.47.52.08,51.96,7.55-37.6,36.65-.38.37.09.52,8.88,51.75-46.48-24.43-.47-.24-.47.24-46.48,24.43,8.88-51.75.09-.52-.38-.37-37.6-36.65,51.96-7.55.52-.08.23-.47,23.24-47.09m0-2.26l-24.14,48.9-53.97,7.84,39.05,38.07-9.22,53.75,48.27-25.38,48.27,25.38-9.22-53.75,39.05-38.07-53.97-7.84-24.14-48.9h0Z"/>
  </g>
  <g>
    <polygon class="cls-1" points="891.15 1574.15 843.54 1599.18 852.64 1546.17 814.12 1508.63 867.35 1500.9 891.15 1452.66 914.95 1500.9 968.18 1508.63 929.67 1546.17 938.76 1599.18 891.15 1574.15"/>
    <path class="cls-1" d="m891.15,1453.79l23.24,47.09.23.47.52.08,51.96,7.55-37.6,36.65-.38.37.09.52,8.88,51.75-46.48-24.43-.47-.24-.47.24-46.48,24.43,8.88-51.75.09-.52-.38-.37-37.6-36.65,51.96-7.55.52-.08.23-.47,23.24-47.09m0-2.26l-24.14,48.9-53.97,7.84,39.05,38.07-9.22,53.75,48.27-25.38,48.27,25.38-9.22-53.75,39.05-38.07-53.97-7.84-24.14-48.9h0Z"/>
  </g>
  <g>
    <polygon class="cls-1" points="1121.91 1574.37 1074.31 1599.4 1083.4 1546.39 1044.88 1508.84 1098.11 1501.11 1121.91 1452.88 1145.72 1501.11 1198.94 1508.84 1160.43 1546.39 1169.52 1599.4 1121.91 1574.37"/>
    <path class="cls-1" d="m1121.91,1454.01l23.24,47.09.23.47.52.08,51.96,7.55-37.6,36.65-.38.37.09.52,8.88,51.75-46.48-24.43-.47-.24-.47.24-46.48,24.43,8.88-51.75.09-.52-.38-.37-37.6-36.65,51.96-7.55.52-.08.23-.47,23.24-47.09m0-2.26l-24.14,48.9-53.97,7.84,39.05,38.07-9.22,53.75,48.27-25.38,48.27,25.38-9.22-53.75,39.05-38.07-53.97-7.84-24.14-48.9h0Z"/>
  </g>
  <g>
    <polygon class="cls-1" points="89.96 1392.47 42.36 1417.5 51.45 1364.49 12.93 1326.95 66.16 1319.21 89.96 1270.98 113.77 1319.21 166.99 1326.95 128.48 1364.49 137.57 1417.5 89.96 1392.47"/>
    <path class="cls-1" d="m89.96,1272.11l23.24,47.09.23.47.52.08,51.96,7.55-37.6,36.65-.38.37.09.52,8.88,51.75-46.48-24.43-.47-.24-.47.24-46.48,24.43,8.88-51.75.09-.52-.38-.37-37.6-36.65,51.96-7.55.52-.08.23-.47,23.24-47.09m0-2.26l-24.14,48.9-53.97,7.84,39.05,38.07-9.22,53.75,48.27-25.38,48.27,25.38-9.22-53.75,39.05-38.07-53.97-7.84-24.14-48.9h0Z"/>
  </g>
  <g>
    <polygon class="cls-1" points="313.37 1757.33 265.76 1782.36 274.85 1729.35 236.34 1691.81 289.57 1684.07 313.37 1635.84 337.17 1684.07 390.4 1691.81 351.88 1729.35 360.98 1782.36 313.37 1757.33"/>
    <path class="cls-1" d="m313.37,1636.97l23.24,47.09.23.47.52.08,51.96,7.55-37.6,36.65-.38.37.09.52,8.88,51.75-46.48-24.43-.47-.24-.47.24-46.48,24.43,8.88-51.75.09-.52-.38-.37-37.6-36.65,51.96-7.55.52-.08.23-.47,23.24-47.09m0-2.26l-24.14,48.9-53.97,7.84,39.05,38.07-9.22,53.75,48.27-25.38,48.27,25.38-9.22-53.75,39.05-38.07-53.97-7.84-24.14-48.9h0Z"/>
  </g>
  <g>
    <polygon class="cls-1" points="544.56 1756.91 496.95 1781.94 506.04 1728.93 467.53 1691.38 520.75 1683.65 544.56 1635.42 568.36 1683.65 621.59 1691.38 583.07 1728.93 592.16 1781.94 544.56 1756.91"/>
    <path class="cls-1" d="m544.56,1636.55l23.24,47.09.23.47.52.08,51.96,7.55-37.6,36.65-.38.37.09.52,8.88,51.75-46.48-24.43-.47-.24-.47.24-46.48,24.43,8.88-51.75.09-.52-.38-.37-37.6-36.65,51.96-7.55.52-.08.23-.47,23.24-47.09m0-2.26l-24.14,48.9-53.97,7.84,39.05,38.07-9.22,53.75,48.27-25.38,48.27,25.38-9.22-53.75,39.05-38.07-53.97-7.84-24.14-48.9h0Z"/>
  </g>
  <g>
    <polygon class="cls-1" points="736.8 1729.14 698.29 1691.6 751.52 1683.86 775.32 1635.63 799.12 1683.86 852.35 1691.6 813.83 1729.14 822.93 1782.15 775.32 1757.12 727.71 1782.15 736.8 1729.14"/>
    <path class="cls-1" d="m775.32,1636.76l23.24,47.09.23.47.52.08,51.96,7.55-37.6,36.65-.38.37.09.52,8.88,51.75-46.48-24.43-.47-.24-.47.24-46.48,24.43,8.88-51.75.09-.52-.38-.37-37.6-36.65,51.96-7.55.52-.08.23-.47,23.24-47.09m0-2.26l-24.14,48.9-53.97,7.84,39.05,38.07-9.22,53.75,48.27-25.38,48.27,25.38-9.22-53.75,39.05-38.07-53.97-7.84-24.14-48.9h0Z"/>
  </g>
  <g>
    <polygon class="cls-1" points="1006.51 1756.7 958.9 1781.73 967.99 1728.71 929.48 1691.17 982.7 1683.44 1006.51 1635.21 1030.31 1683.44 1083.54 1691.17 1045.02 1728.71 1054.11 1781.73 1006.51 1756.7"/>
    <path class="cls-1" d="m1006.51,1636.34l23.24,47.09.23.47.52.08,51.96,7.55-37.6,36.65-.38.37.09.52,8.88,51.75-46.48-24.43-.47-.24-.47.24-46.48,24.43,8.88-51.75.09-.52-.38-.37-37.6-36.65,51.96-7.55.52-.08.23-.47,23.24-47.09m0-2.26l-24.14,48.9-53.97,7.84,39.05,38.07-9.22,53.75,48.27-25.38,48.27,25.38-9.22-53.75,39.05-38.07-53.97-7.84-24.14-48.9h0Z"/>
  </g>
  <g>
    <polygon class="cls-1" points="1237.27 1756.91 1189.66 1781.94 1198.75 1728.93 1160.24 1691.38 1213.47 1683.65 1237.27 1635.42 1261.07 1683.65 1314.3 1691.38 1275.78 1728.93 1284.88 1781.94 1237.27 1756.91"/>
    <path class="cls-1" d="m1237.27,1636.55l23.24,47.09.23.47.52.08,51.96,7.55-37.6,36.65-.38.37.09.52,8.88,51.75-46.48-24.43-.47-.24-.47.24-46.48,24.43,8.88-51.75.09-.52-.38-.37-37.6-36.65,51.96-7.55.52-.08.23-.47,23.24-47.09m0-2.26l-24.14,48.9-53.97,7.84,39.05,38.07-9.22,53.75,48.27-25.38,48.27,25.38-9.22-53.75,39.05-38.07-53.97-7.84-24.14-48.9h0Z"/>
  </g>
  <g>
    <polygon class="cls-1" points="436.54 1938.25 388.93 1963.28 398.02 1910.27 359.51 1872.73 412.73 1864.99 436.54 1816.76 460.34 1864.99 513.57 1872.73 475.05 1910.27 484.14 1963.28 436.54 1938.25"/>
    <path class="cls-1" d="m436.54,1817.89l23.24,47.09.23.47.52.08,51.96,7.55-37.6,36.65-.38.37.09.52,8.88,51.75-46.48-24.43-.47-.24-.47.24-46.48,24.43,8.88-51.75.09-.52-.38-.37-37.6-36.65,51.96-7.55.52-.08.23-.47,23.24-47.09m0-2.26l-24.14,48.9-53.97,7.84,39.05,38.07-9.22,53.75,48.27-25.38,48.27,25.38-9.22-53.75,39.05-38.07-53.97-7.84-24.14-48.9h0Z"/>
  </g>
  <g>
    <polygon class="cls-1" points="629.21 1909.84 590.7 1872.3 643.92 1864.57 667.73 1816.34 691.53 1864.57 744.76 1872.3 706.24 1909.84 715.33 1962.85 667.73 1937.83 620.12 1962.85 629.21 1909.84"/>
    <path class="cls-1" d="m667.73,1817.47l23.24,47.09.23.47.52.08,51.96,7.55-37.6,36.65-.38.37.09.52,8.88,51.75-46.48-24.43-.47-.24-.47.24-46.48,24.43,8.88-51.75.09-.52-.38-.37-37.6-36.65,51.96-7.55.52-.08.23-.47,23.24-47.09m0-2.26l-24.14,48.9-53.97,7.84,39.05,38.07-9.22,53.75,48.27-25.38,48.27,25.38-9.22-53.75,39.05-38.07-53.97-7.84-24.14-48.9h0Z"/>
  </g>
  <g>
    <polygon class="cls-1" points="898.49 1938.04 850.88 1963.07 859.97 1910.06 821.46 1872.51 874.68 1864.78 898.49 1816.55 922.29 1864.78 975.52 1872.51 937 1910.06 946.09 1963.07 898.49 1938.04"/>
    <path class="cls-1" d="m898.49,1817.68l23.24,47.09.23.47.52.08,51.96,7.55-37.6,36.65-.38.37.09.52,8.88,51.75-46.48-24.43-.47-.24-.47.24-46.48,24.43,8.88-51.75.09-.52-.38-.37-37.6-36.65,51.96-7.55.52-.08.23-.47,23.24-47.09m0-2.26l-24.14,48.9-53.97,7.84,39.05,38.07-9.22,53.75,48.27-25.38,48.27,25.38-9.22-53.75,39.05-38.07-53.97-7.84-24.14-48.9h0Z"/>
  </g>
  <g>
    <polygon class="cls-1" points="1129.68 1937.61 1082.07 1962.64 1091.16 1909.63 1052.65 1872.09 1105.87 1864.35 1129.68 1816.12 1153.48 1864.35 1206.71 1872.09 1168.19 1909.63 1177.28 1962.64 1129.68 1937.61"/>
    <path class="cls-1" d="m1129.68,1817.25l23.24,47.09.23.47.52.08,51.96,7.55-37.6,36.65-.38.37.09.52,8.88,51.75-46.48-24.43-.47-.24-.47.24-46.48,24.43,8.88-51.75.09-.52-.38-.37-37.6-36.65,51.96-7.55.52-.08.23-.47,23.24-47.09m0-2.26l-24.14,48.9-53.97,7.84,39.05,38.07-9.22,53.75,48.27-25.38,48.27,25.38-9.22-53.75,39.05-38.07-53.97-7.84-24.14-48.9h0Z"/>
  </g>
  <g>
    <polygon class="cls-1" points="43.92 1729.84 5.41 1692.3 58.63 1684.57 82.44 1636.34 106.24 1684.57 159.47 1692.3 120.95 1729.84 130.04 1782.85 82.44 1757.83 34.83 1782.85 43.92 1729.84"/>
    <path class="cls-1" d="m82.44,1637.47l23.24,47.09.23.47.52.08,51.96,7.55-37.6,36.65-.38.37.09.52,8.88,51.75-46.48-24.43-.47-.24-.47.24-46.48,24.43,8.88-51.75.09-.52-.38-.37-37.6-36.65,51.96-7.55.52-.08.23-.47,23.24-47.09m0-2.26l-24.14,48.9-53.97,7.84,39.05,38.07-9.22,53.75,48.27-25.38,48.27,25.38-9.22-53.75,39.05-38.07-53.97-7.84-24.14-48.9h0Z"/>
  </g>
  <g>
    <polygon class="cls-1" points="205.49 1937.93 157.88 1962.96 166.97 1909.95 128.46 1872.41 181.68 1864.67 205.49 1816.44 229.29 1864.67 282.52 1872.41 244 1909.95 253.09 1962.96 205.49 1937.93"/>
    <path class="cls-1" d="m205.49,1817.57l23.24,47.09.23.47.52.08,51.96,7.55-37.6,36.65-.38.37.09.52,8.88,51.75-46.48-24.43-.47-.24-.47.24-46.48,24.43,8.88-51.75.09-.52-.38-.37-37.6-36.65,51.96-7.55.52-.08.23-.47,23.24-47.09m0-2.26l-24.14,48.9-53.97,7.84,39.05,38.07-9.22,53.75,48.27-25.38,48.27,25.38-9.22-53.75,39.05-38.07-53.97-7.84-24.14-48.9h0Z"/>
  </g>
</svg>