<?xml version="1.0" encoding="UTF-8"?>
<svg id="Laag_1" data-name="Laag 1" xmlns="http://www.w3.org/2000/svg" viewBox="0 0 1323.02 1964.19">
  <defs>
    <style>
      .cls-1 {
        fill: #fff;
        stroke-width: 0px;
      }
    </style>
  </defs>
  <polygon class="cls-1" points="193.99 .64 218.12 49.54 272.09 57.38 233.04 95.45 242.26 149.2 193.99 123.82 145.71 149.2 154.93 95.45 115.88 57.38 169.85 49.54 193.99 .64"/>
  <polygon class="cls-1" points="425.17 .21 449.31 49.12 503.28 56.96 464.23 95.02 473.44 148.77 425.17 123.4 376.9 148.77 386.12 95.02 347.07 56.96 401.04 49.12 425.17 .21"/>
  <polygon class="cls-1" points="655.94 .42 680.07 49.33 734.04 57.17 694.99 95.24 704.21 148.99 655.94 123.61 607.66 148.99 616.88 95.24 577.83 57.17 631.8 49.33 655.94 .42"/>
  <polygon class="cls-1" points="887.12 0 911.26 48.9 965.23 56.75 926.18 94.81 935.39 148.56 887.12 123.18 838.85 148.56 848.07 94.81 809.02 56.75 862.99 48.9 887.12 0"/>
  <polygon class="cls-1" points="1117.89 .21 1142.02 49.12 1195.99 56.96 1156.94 95.02 1166.16 148.77 1117.89 123.4 1069.61 148.77 1078.83 95.02 1039.78 56.96 1093.75 49.12 1117.89 .21"/>
  <polygon class="cls-1" points="317.15 181.55 341.29 230.46 395.26 238.3 356.21 276.37 365.42 330.12 317.15 304.74 268.88 330.12 278.1 276.37 239.05 238.3 293.02 230.46 317.15 181.55"/>
  <polygon class="cls-1" points="548.34 181.13 572.48 230.03 626.45 237.88 587.39 275.94 596.61 329.69 548.34 304.31 500.07 329.69 509.29 275.94 470.24 237.88 524.21 230.03 548.34 181.13"/>
  <polygon class="cls-1" points="779.1 181.34 803.24 230.25 857.21 238.09 818.16 276.15 827.37 329.9 779.1 304.53 730.83 329.9 740.05 276.15 701 238.09 754.97 230.25 779.1 181.34"/>
  <polygon class="cls-1" points="1010.29 180.92 1034.43 229.82 1088.4 237.66 1049.34 275.73 1058.56 329.48 1010.29 304.1 962.02 329.48 971.24 275.73 932.19 237.66 986.16 229.82 1010.29 180.92"/>
  <polygon class="cls-1" points="1241.05 181.13 1265.19 230.03 1319.16 237.88 1280.11 275.94 1289.32 329.69 1241.05 304.31 1192.78 329.69 1202 275.94 1162.95 237.88 1216.92 230.03 1241.05 181.13"/>
  <polygon class="cls-1" points="194.15 363.55 218.29 412.46 272.26 420.3 233.21 458.37 242.42 512.12 194.15 486.74 145.88 512.12 155.1 458.37 116.05 420.3 170.02 412.46 194.15 363.55"/>
  <polygon class="cls-1" points="425.34 363.13 449.48 412.03 503.45 419.88 464.39 457.94 473.61 511.69 425.34 486.31 377.07 511.69 386.29 457.94 347.24 419.88 401.21 412.03 425.34 363.13"/>
  <polygon class="cls-1" points="656.1 363.34 680.24 412.25 734.21 420.09 695.16 458.15 704.37 511.9 656.1 486.53 607.83 511.9 617.05 458.15 578 420.09 631.97 412.25 656.1 363.34"/>
  <polygon class="cls-1" points="887.29 362.92 911.43 411.82 965.4 419.66 926.34 457.73 935.56 511.48 887.29 486.1 839.02 511.48 848.24 457.73 809.19 419.66 863.16 411.82 887.29 362.92"/>
  <polygon class="cls-1" points="1118.05 363.13 1142.19 412.03 1196.16 419.88 1157.11 457.94 1166.32 511.69 1118.05 486.31 1069.78 511.69 1079 457.94 1039.95 419.88 1093.92 412.03 1118.05 363.13"/>
  <polygon class="cls-1" points="86.1 181.24 110.24 230.14 164.21 237.98 125.16 276.05 134.37 329.8 86.1 304.42 37.83 329.8 47.05 276.05 8 237.98 61.97 230.14 86.1 181.24"/>
  <polygon class="cls-1" points="309.51 546.1 333.65 595 387.61 602.84 348.56 640.91 357.78 694.66 309.51 669.28 261.24 694.66 270.46 640.91 231.41 602.84 285.37 595 309.51 546.1"/>
  <polygon class="cls-1" points="540.7 545.67 564.83 594.57 618.8 602.42 579.75 640.48 588.97 694.23 540.7 668.86 492.43 694.23 501.65 640.48 462.6 602.42 516.56 594.57 540.7 545.67"/>
  <polygon class="cls-1" points="771.46 545.88 795.6 594.79 849.56 602.63 810.51 640.7 819.73 694.45 771.46 669.07 723.19 694.45 732.41 640.7 693.36 602.63 747.32 594.79 771.46 545.88"/>
  <polygon class="cls-1" points="1002.65 545.46 1026.78 594.36 1080.75 602.2 1041.7 640.27 1050.92 694.02 1002.65 668.64 954.38 694.02 963.6 640.27 924.55 602.2 978.51 594.36 1002.65 545.46"/>
  <polygon class="cls-1" points="1233.41 545.67 1257.55 594.57 1311.51 602.42 1272.46 640.48 1281.68 694.23 1233.41 668.86 1185.14 694.23 1194.36 640.48 1155.31 602.42 1209.27 594.57 1233.41 545.67"/>
  <polygon class="cls-1" points="432.68 727.01 456.81 775.92 510.78 783.76 471.73 821.82 480.95 875.58 432.68 850.2 384.41 875.58 393.63 821.82 354.57 783.76 408.54 775.92 432.68 727.01"/>
  <polygon class="cls-1" points="663.87 726.59 688 775.49 741.97 783.33 702.92 821.4 712.14 875.15 663.87 849.77 615.6 875.15 624.82 821.4 585.76 783.33 639.73 775.49 663.87 726.59"/>
  <polygon class="cls-1" points="894.63 726.8 918.76 775.7 972.73 783.55 933.68 821.61 942.9 875.36 894.63 849.99 846.36 875.36 855.58 821.61 816.52 783.55 870.49 775.7 894.63 726.8"/>
  <polygon class="cls-1" points="1125.82 726.38 1149.95 775.28 1203.92 783.12 1164.87 821.19 1174.09 874.94 1125.82 849.56 1077.55 874.94 1086.77 821.19 1047.71 783.12 1101.68 775.28 1125.82 726.38"/>
  <polygon class="cls-1" points="78.58 546.59 102.71 595.49 156.68 603.33 117.63 641.4 126.85 695.15 78.58 669.77 30.31 695.15 39.53 641.4 .48 603.33 54.44 595.49 78.58 546.59"/>
  <polygon class="cls-1" points="309.68 909.01 333.81 957.92 387.78 965.76 348.73 1003.82 357.95 1057.58 309.68 1032.2 261.41 1057.58 270.63 1003.82 231.57 965.76 285.54 957.92 309.68 909.01"/>
  <polygon class="cls-1" points="540.87 908.59 565 957.49 618.97 965.33 579.92 1003.4 589.14 1057.15 540.87 1031.77 492.6 1057.15 501.82 1003.4 462.76 965.33 516.73 957.49 540.87 908.59"/>
  <polygon class="cls-1" points="771.63 908.8 795.76 957.7 849.73 965.55 810.68 1003.61 819.9 1057.36 771.63 1031.99 723.36 1057.36 732.58 1003.61 693.52 965.55 747.49 957.7 771.63 908.8"/>
  <polygon class="cls-1" points="1002.82 908.38 1026.95 957.28 1080.92 965.12 1041.87 1003.19 1051.09 1056.94 1002.82 1031.56 954.55 1056.94 963.77 1003.19 924.71 965.12 978.68 957.28 1002.82 908.38"/>
  <polygon class="cls-1" points="1233.58 908.59 1257.71 957.49 1311.68 965.33 1272.63 1003.4 1281.85 1057.15 1233.58 1031.77 1185.31 1057.15 1194.53 1003.4 1155.48 965.33 1209.44 957.49 1233.58 908.59"/>
  <polygon class="cls-1" points="201.63 726.69 225.76 775.6 279.73 783.44 240.68 821.51 249.9 875.26 201.63 849.88 153.36 875.26 162.58 821.51 123.52 783.44 177.49 775.6 201.63 726.69"/>
  <polygon class="cls-1" points="78.1 909.24 102.24 958.14 156.21 965.98 117.16 1004.05 126.37 1057.8 78.1 1032.42 29.83 1057.8 39.05 1004.05 0 965.98 53.97 958.14 78.1 909.24"/>
  <polygon class="cls-1" points="197.84 1089.26 221.98 1138.16 275.95 1146 236.9 1184.07 246.11 1237.82 197.84 1212.44 149.57 1237.82 158.79 1184.07 119.74 1146 173.71 1138.16 197.84 1089.26"/>
  <polygon class="cls-1" points="429.03 1088.83 453.17 1137.73 507.14 1145.58 468.08 1183.64 477.3 1237.39 429.03 1212.02 380.76 1237.39 389.98 1183.64 350.93 1145.58 404.9 1137.73 429.03 1088.83"/>
  <polygon class="cls-1" points="659.79 1089.04 683.93 1137.95 737.9 1145.79 698.85 1183.85 708.06 1237.6 659.79 1212.23 611.52 1237.6 620.74 1183.85 581.69 1145.79 635.66 1137.95 659.79 1089.04"/>
  <polygon class="cls-1" points="890.98 1088.62 915.12 1137.52 969.09 1145.36 930.03 1183.43 939.25 1237.18 890.98 1211.8 842.71 1237.18 851.93 1183.43 812.88 1145.36 866.85 1137.52 890.98 1088.62"/>
  <polygon class="cls-1" points="1121.74 1088.83 1145.88 1137.73 1199.85 1145.58 1160.8 1183.64 1170.01 1237.39 1121.74 1212.02 1073.47 1237.39 1082.69 1183.64 1043.64 1145.58 1097.61 1137.73 1121.74 1088.83"/>
  <polygon class="cls-1" points="321.01 1270.17 345.15 1319.08 399.12 1326.92 360.06 1364.98 369.28 1418.73 321.01 1393.36 272.74 1418.73 281.96 1364.98 242.91 1326.92 296.88 1319.08 321.01 1270.17"/>
  <polygon class="cls-1" points="552.2 1269.75 576.34 1318.65 630.3 1326.49 591.25 1364.56 600.47 1418.31 552.2 1392.93 503.93 1418.31 513.15 1364.56 474.1 1326.49 528.07 1318.65 552.2 1269.75"/>
  <polygon class="cls-1" points="782.96 1269.96 807.1 1318.86 861.07 1326.71 822.01 1364.77 831.23 1418.52 782.96 1393.14 734.69 1418.52 743.91 1364.77 704.86 1326.71 758.83 1318.86 782.96 1269.96"/>
  <polygon class="cls-1" points="1014.15 1269.54 1038.29 1318.44 1092.25 1326.28 1053.2 1364.35 1062.42 1418.1 1014.15 1392.72 965.88 1418.1 975.1 1364.35 936.05 1326.28 990.02 1318.44 1014.15 1269.54"/>
  <polygon class="cls-1" points="1244.91 1269.75 1269.05 1318.65 1323.02 1326.49 1283.96 1364.56 1293.18 1418.31 1244.91 1392.93 1196.64 1418.31 1205.86 1364.56 1166.81 1326.49 1220.78 1318.65 1244.91 1269.75"/>
  <polygon class="cls-1" points="198.01 1452.17 222.15 1501.08 276.12 1508.92 237.06 1546.98 246.28 1600.73 198.01 1575.36 149.74 1600.73 158.96 1546.98 119.91 1508.92 173.88 1501.08 198.01 1452.17"/>
  <polygon class="cls-1" points="429.2 1451.75 453.34 1500.65 507.3 1508.49 468.25 1546.56 477.47 1600.31 429.2 1574.93 380.93 1600.31 390.15 1546.56 351.1 1508.49 405.07 1500.65 429.2 1451.75"/>
  <polygon class="cls-1" points="659.96 1451.96 684.1 1500.86 738.07 1508.71 699.01 1546.77 708.23 1600.52 659.96 1575.14 611.69 1600.52 620.91 1546.77 581.86 1508.71 635.83 1500.86 659.96 1451.96"/>
  <polygon class="cls-1" points="891.15 1451.54 915.29 1500.44 969.25 1508.28 930.2 1546.35 939.42 1600.1 891.15 1574.72 842.88 1600.1 852.1 1546.35 813.05 1508.28 867.02 1500.44 891.15 1451.54"/>
  <polygon class="cls-1" points="1121.91 1451.75 1146.05 1500.65 1200.02 1508.49 1160.96 1546.56 1170.18 1600.31 1121.91 1574.93 1073.64 1600.31 1082.86 1546.56 1043.81 1508.49 1097.78 1500.65 1121.91 1451.75"/>
  <polygon class="cls-1" points="89.96 1269.85 114.1 1318.76 168.07 1326.6 129.01 1364.67 138.23 1418.42 89.96 1393.04 41.69 1418.42 50.91 1364.67 11.86 1326.6 65.83 1318.76 89.96 1269.85"/>
  <polygon class="cls-1" points="313.37 1634.71 337.5 1683.62 391.47 1691.46 352.42 1729.53 361.64 1783.28 313.37 1757.9 265.1 1783.28 274.32 1729.53 235.26 1691.46 289.23 1683.62 313.37 1634.71"/>
  <polygon class="cls-1" points="544.56 1634.29 568.69 1683.19 622.66 1691.03 583.61 1729.1 592.83 1782.85 544.56 1757.47 496.29 1782.85 505.51 1729.1 466.45 1691.03 520.42 1683.19 544.56 1634.29"/>
  <polygon class="cls-1" points="775.32 1634.5 799.45 1683.4 853.42 1691.25 814.37 1729.31 823.59 1783.06 775.32 1757.69 727.05 1783.06 736.27 1729.31 697.21 1691.25 751.18 1683.4 775.32 1634.5"/>
  <polygon class="cls-1" points="1006.51 1634.08 1030.64 1682.98 1084.61 1690.82 1045.56 1728.89 1054.78 1782.64 1006.51 1757.26 958.24 1782.64 967.46 1728.89 928.4 1690.82 982.37 1682.98 1006.51 1634.08"/>
  <polygon class="cls-1" points="1237.27 1634.29 1261.4 1683.19 1315.37 1691.03 1276.32 1729.1 1285.54 1782.85 1237.27 1757.47 1189 1782.85 1198.22 1729.1 1159.16 1691.03 1213.13 1683.19 1237.27 1634.29"/>
  <polygon class="cls-1" points="436.54 1815.63 460.67 1864.53 514.64 1872.38 475.59 1910.44 484.81 1964.19 436.54 1938.82 388.27 1964.19 397.49 1910.44 358.43 1872.38 412.4 1864.53 436.54 1815.63"/>
  <polygon class="cls-1" points="667.73 1815.21 691.86 1864.11 745.83 1871.95 706.78 1910.02 716 1963.77 667.73 1938.39 619.45 1963.77 628.67 1910.02 589.62 1871.95 643.59 1864.11 667.73 1815.21"/>
  <polygon class="cls-1" points="898.49 1815.42 922.62 1864.32 976.59 1872.16 937.54 1910.23 946.76 1963.98 898.49 1938.6 850.22 1963.98 859.44 1910.23 820.38 1872.16 874.35 1864.32 898.49 1815.42"/>
  <polygon class="cls-1" points="1129.68 1814.99 1153.81 1863.9 1207.78 1871.74 1168.73 1909.81 1177.95 1963.56 1129.68 1938.18 1081.41 1963.56 1090.62 1909.81 1051.57 1871.74 1105.54 1863.9 1129.68 1814.99"/>
  <polygon class="cls-1" points="82.44 1635.21 106.57 1684.11 160.54 1691.95 121.49 1730.02 130.71 1783.77 82.44 1758.39 34.17 1783.77 43.39 1730.02 4.33 1691.95 58.3 1684.11 82.44 1635.21"/>
  <polygon class="cls-1" points="205.49 1815.31 229.62 1864.22 283.59 1872.06 244.54 1910.12 253.76 1963.87 205.49 1938.5 157.22 1963.87 166.44 1910.12 127.38 1872.06 181.35 1864.22 205.49 1815.31"/>
</svg>